<?xml version="1.0" encoding="UTF-8"?><svg id="Layer_2" xmlns="http://www.w3.org/2000/svg" width="566.28" height="254.15" xmlns:xlink="http://www.w3.org/1999/xlink" viewBox="0 0 566.28 254.15"><defs><style>.cls-1,.cls-2{fill:none;}.cls-3{clip-path:url(#clippath);}.cls-4{clip-path:url(#clippath-1);}.cls-2{stroke:#000;stroke-miterlimit:10;}</style><clipPath id="clippath"><path class="cls-1" d="M268.54,127.07c0,80.24-54.71,127.07-140.24,127.07H0V0H128.29c85.53,0,140.24,46.47,140.24,127.07Zm-78.3,0c0-38.48-26.1-59.54-68.24-59.54h-45.28v119.09h45.28c42.14,0,68.24-21.06,68.24-59.54Z"/></clipPath><clipPath id="clippath-1"><path class="cls-1" d="M566.28,0V254.15h-76.72v-94.03h-115.4v94.03h-76.72V0h76.72V90.4h115.4V0h76.72Z"/></clipPath></defs><g id="Layer_2-2"><g class="cls-3"><g><line class="cls-2" x1="-164.95" y1="3.91" x2="538.52" y2="3.91"/><line class="cls-2" x1="-164.96" y1="10.82" x2="538.51" y2="10.82"/><line class="cls-2" x1="-164.98" y1="17.73" x2="538.49" y2="17.73"/><line class="cls-2" x1="-164.99" y1="24.64" x2="538.48" y2="24.64"/><line class="cls-2" x1="-165" y1="31.55" x2="538.47" y2="31.55"/><line class="cls-2" x1="-165.01" y1="38.46" x2="538.46" y2="38.46"/><line class="cls-2" x1="-165.02" y1="45.37" x2="538.45" y2="45.37"/><line class="cls-2" x1="-165.03" y1="52.28" x2="538.43" y2="52.28"/><line class="cls-2" x1="-165.05" y1="59.19" x2="538.42" y2="59.19"/><line class="cls-2" x1="-165.06" y1="66.09" x2="538.41" y2="66.09"/><line class="cls-2" x1="-165.07" y1="73" x2="538.4" y2="73"/><line class="cls-2" x1="-165.08" y1="79.91" x2="538.39" y2="79.91"/><line class="cls-2" x1="-165.09" y1="86.82" x2="538.38" y2="86.82"/><line class="cls-2" x1="-165.11" y1="93.73" x2="538.36" y2="93.73"/><line class="cls-2" x1="-165.12" y1="100.64" x2="538.35" y2="100.64"/><line class="cls-2" x1="-165.13" y1="107.55" x2="538.34" y2="107.55"/><line class="cls-2" x1="-165.14" y1="114.46" x2="538.33" y2="114.46"/><line class="cls-2" x1="-165.15" y1="121.37" x2="538.32" y2="121.37"/><line class="cls-2" x1="-165.17" y1="128.27" x2="538.3" y2="128.27"/><line class="cls-2" x1="-165.18" y1="135.18" x2="538.29" y2="135.18"/><line class="cls-2" x1="-165.19" y1="142.09" x2="538.28" y2="142.09"/><line class="cls-2" x1="-165.2" y1="149" x2="538.27" y2="149"/><line class="cls-2" x1="-165.21" y1="155.91" x2="538.26" y2="155.91"/><line class="cls-2" x1="-165.22" y1="162.82" x2="538.24" y2="162.82"/><line class="cls-2" x1="-165.24" y1="169.73" x2="538.23" y2="169.73"/><line class="cls-2" x1="-165.25" y1="176.64" x2="538.22" y2="176.64"/><line class="cls-2" x1="-165.26" y1="183.55" x2="538.21" y2="183.55"/><line class="cls-2" x1="-165.27" y1="190.45" x2="538.2" y2="190.45"/><line class="cls-2" x1="-165.28" y1="197.36" x2="538.19" y2="197.36"/><line class="cls-2" x1="-165.3" y1="204.27" x2="538.17" y2="204.27"/><line class="cls-2" x1="-165.31" y1="211.18" x2="538.16" y2="211.18"/><line class="cls-2" x1="-165.32" y1="218.09" x2="538.15" y2="218.09"/><line class="cls-2" x1="-165.33" y1="225" x2="538.14" y2="225"/><line class="cls-2" x1="-165.34" y1="231.91" x2="538.13" y2="231.91"/><line class="cls-2" x1="-165.35" y1="238.82" x2="538.11" y2="238.82"/><line class="cls-2" x1="-165.37" y1="245.73" x2="538.1" y2="245.73"/><line class="cls-2" x1="-165.38" y1="252.63" x2="538.09" y2="252.63"/></g></g><g class="cls-4"><g><line class="cls-2" x1="183.94" y1="4.32" x2="887.4" y2="4.32"/><line class="cls-2" x1="183.92" y1="11.23" x2="887.39" y2="11.23"/><line class="cls-2" x1="183.91" y1="18.14" x2="887.38" y2="18.14"/><line class="cls-2" x1="183.9" y1="25.05" x2="887.37" y2="25.05"/><line class="cls-2" x1="183.89" y1="31.96" x2="887.36" y2="31.96"/><line class="cls-2" x1="183.88" y1="38.87" x2="887.35" y2="38.87"/><line class="cls-2" x1="183.86" y1="45.78" x2="887.33" y2="45.78"/><line class="cls-2" x1="183.85" y1="52.69" x2="887.32" y2="52.69"/><line class="cls-2" x1="183.84" y1="59.59" x2="887.31" y2="59.59"/><line class="cls-2" x1="183.83" y1="66.5" x2="887.3" y2="66.5"/><line class="cls-2" x1="183.82" y1="73.41" x2="887.29" y2="73.41"/><line class="cls-2" x1="183.81" y1="80.32" x2="887.27" y2="80.32"/><line class="cls-2" x1="183.79" y1="87.23" x2="887.26" y2="87.23"/><line class="cls-2" x1="183.78" y1="94.14" x2="887.25" y2="94.14"/><line class="cls-2" x1="183.77" y1="101.05" x2="887.24" y2="101.05"/><line class="cls-2" x1="183.76" y1="107.96" x2="887.23" y2="107.96"/><line class="cls-2" x1="183.75" y1="114.87" x2="887.22" y2="114.87"/><line class="cls-2" x1="183.73" y1="121.77" x2="887.2" y2="121.77"/><line class="cls-2" x1="183.72" y1="128.68" x2="887.19" y2="128.68"/><line class="cls-2" x1="183.71" y1="135.59" x2="887.18" y2="135.59"/><line class="cls-2" x1="183.7" y1="142.5" x2="887.17" y2="142.5"/><line class="cls-2" x1="183.69" y1="149.41" x2="887.16" y2="149.41"/><line class="cls-2" x1="183.67" y1="156.32" x2="887.14" y2="156.32"/><line class="cls-2" x1="183.66" y1="163.23" x2="887.13" y2="163.23"/><line class="cls-2" x1="183.65" y1="170.14" x2="887.12" y2="170.14"/><line class="cls-2" x1="183.64" y1="177.05" x2="887.11" y2="177.05"/><line class="cls-2" x1="183.63" y1="183.95" x2="887.1" y2="183.95"/><line class="cls-2" x1="183.62" y1="190.86" x2="887.08" y2="190.86"/><line class="cls-2" x1="183.6" y1="197.77" x2="887.07" y2="197.77"/><line class="cls-2" x1="183.59" y1="204.68" x2="887.06" y2="204.68"/><line class="cls-2" x1="183.58" y1="211.59" x2="887.05" y2="211.59"/><line class="cls-2" x1="183.57" y1="218.5" x2="887.04" y2="218.5"/><line class="cls-2" x1="183.56" y1="225.41" x2="887.03" y2="225.41"/><line class="cls-2" x1="183.54" y1="232.32" x2="887.01" y2="232.32"/><line class="cls-2" x1="183.53" y1="239.22" x2="887" y2="239.22"/><line class="cls-2" x1="183.52" y1="246.13" x2="886.99" y2="246.13"/><line class="cls-2" x1="183.51" y1="253.04" x2="886.98" y2="253.04"/></g></g></g></svg>